<?xml version="1.0" encoding="utf-8"?>
<svg xmlns="http://www.w3.org/2000/svg" xmlns:xlink="http://www.w3.org/1999/xlink" style="margin: auto; background: none; display: block; shape-rendering: auto;" width="381px" height="381px" viewBox="0 0 100 100" preserveAspectRatio="xMidYMid">
<g transform="rotate(0 50 50)">
  <rect x="46.5" y="26.5" rx="0" ry="0" width="7" height="7" fill="#fafafa">
    <animate attributeName="opacity" values="1;0" keyTimes="0;1" dur="1.6949152542372883s" begin="-1.5065913370998119s" repeatCount="indefinite"></animate>
  </rect>
</g><g transform="rotate(40 50 50)">
  <rect x="46.5" y="26.5" rx="0" ry="0" width="7" height="7" fill="#fafafa">
    <animate attributeName="opacity" values="1;0" keyTimes="0;1" dur="1.6949152542372883s" begin="-1.3182674199623352s" repeatCount="indefinite"></animate>
  </rect>
</g><g transform="rotate(80 50 50)">
  <rect x="46.5" y="26.5" rx="0" ry="0" width="7" height="7" fill="#fafafa">
    <animate attributeName="opacity" values="1;0" keyTimes="0;1" dur="1.6949152542372883s" begin="-1.1299435028248588s" repeatCount="indefinite"></animate>
  </rect>
</g><g transform="rotate(120 50 50)">
  <rect x="46.5" y="26.5" rx="0" ry="0" width="7" height="7" fill="#fafafa">
    <animate attributeName="opacity" values="1;0" keyTimes="0;1" dur="1.6949152542372883s" begin="-0.9416195856873824s" repeatCount="indefinite"></animate>
  </rect>
</g><g transform="rotate(160 50 50)">
  <rect x="46.5" y="26.5" rx="0" ry="0" width="7" height="7" fill="#fafafa">
    <animate attributeName="opacity" values="1;0" keyTimes="0;1" dur="1.6949152542372883s" begin="-0.7532956685499059s" repeatCount="indefinite"></animate>
  </rect>
</g><g transform="rotate(200 50 50)">
  <rect x="46.5" y="26.5" rx="0" ry="0" width="7" height="7" fill="#fafafa">
    <animate attributeName="opacity" values="1;0" keyTimes="0;1" dur="1.6949152542372883s" begin="-0.5649717514124294s" repeatCount="indefinite"></animate>
  </rect>
</g><g transform="rotate(240 50 50)">
  <rect x="46.5" y="26.5" rx="0" ry="0" width="7" height="7" fill="#fafafa">
    <animate attributeName="opacity" values="1;0" keyTimes="0;1" dur="1.6949152542372883s" begin="-0.37664783427495296s" repeatCount="indefinite"></animate>
  </rect>
</g><g transform="rotate(280 50 50)">
  <rect x="46.5" y="26.5" rx="0" ry="0" width="7" height="7" fill="#fafafa">
    <animate attributeName="opacity" values="1;0" keyTimes="0;1" dur="1.6949152542372883s" begin="-0.18832391713747648s" repeatCount="indefinite"></animate>
  </rect>
</g><g transform="rotate(320 50 50)">
  <rect x="46.5" y="26.5" rx="0" ry="0" width="7" height="7" fill="#fafafa">
    <animate attributeName="opacity" values="1;0" keyTimes="0;1" dur="1.6949152542372883s" begin="0s" repeatCount="indefinite"></animate>
  </rect>
</g>
<!-- [ldio] generated by https://loading.io/ --></svg>